<svg version="1.1" id="Ebene_1" xmlns="http://www.w3.org/2000/svg" xmlns:xlink="http://www.w3.org/1999/xlink" x="0px" y="0px" viewBox="0 0 408 256" style="enable-background:new 0 0 408 256;" xml:space="preserve">
<style type="text/css">
	.st0{fill:#E30613;}
	.st1{fill:#FBBA00;}
</style>
<g>
	<path class="st0" d="M391.8,80.1c-7.8-6-14.3-11.5-14.3-11.5l4.9-16.1l-9,2.7l-3.4,13l0,0l-3.3-11l-7.9,2.3l8.3,28l7.9-2.3   l-3.2-10.9l0,0c0,0,6,5.6,10.1,8.9L391.8,80.1z M361.8,89l-8.3-28l-8,2.4l8.3,28L361.8,89z M344.6,70.8l-1.9-6.5l-21.4,6.3l1.9,6.5   l6.8-2l6.3,21.4l7.9-2.3l-6.3-21.4L344.6,70.8z M330.3,98.3l-16.3-25.6l-10.4,3.1l-0.1,30.4l8-2.4l-0.3-5.9l7.7-2.3l3,5.1   L330.3,98.3z M300.5,107.1L290,79.8l-7.7,2.3l-2.1,13l0,0l-9-9.7l-7.7,2.3l6.2,28.6l7.5-2.2l-4.1-16.3l0,0l11.2,11.9l2.9-16.1l0,0   l5.6,15.9L300.5,107.1z M266.7,117.1l-6.9-8.1c-1.9-2.3-3.4-2.2-3.4-2.2l0,0c2-1.6,4.4-4.7,3.1-8.8c-1.9-6.4-7.2-7-13.4-5.2   L235.3,96l8.3,28l7.9-2.3l-2.9-9.8l1.2-0.3c1-0.3,1.7,0.3,2.7,1.5l5.3,6.7L266.7,117.1z M235.6,111.1c-2.7-9.2-6.2-14.2-16.3-11.2   c-10.2,3-10.8,9.2-8.1,18.4c2.7,9.3,6.2,14.2,16.4,11.2C237.8,126.5,238.3,120.4,235.6,111.1 M206.4,111.4l-1.8-6.2l-17.4,5.2   l8.3,28l7.9-2.3l-2.9-9.7l8.8-2.6l-1.9-6.3l-8.8,2.6l-1.7-5.6L206.4,111.4z M190.1,139.8l-8.3-28l-7.1,2.1l4.9,16.2l0,0l-13.3-13.7   l-8.4,2.5l8.3,28l7.1-2.1l-4.9-16.2l0,0l13.3,13.7L190.1,139.8z M160.8,148.5l-8.3-28l-8,2.4l8.3,28L160.8,148.5z"/>
	<path class="st1" d="M205.7,187l4.4-1.3l-1.8-6.1l-9.1,2.7l1.5,5c-0.6,0.1-1.1,0.2-1.8,0.4c-0.8,0.2-1.4,0.5-2.1,0.8l-1.5-5   l-9.1,2.7l1.8,6.1l4.8-1.4c-4.1,3.6-3.9,8.7-2.2,14.2c2.1,7.3,5.8,12.9,16,9.9c10.2-3,10.6-9.9,8.4-17.2   C213.3,192.3,210.9,187.9,205.7,187 M341.4,174.2l-13.3-13.7l0,0l4.9,16.2l-7.1,2.1l-8.3-28l8.4-2.5l13.3,13.7l0,0l-4.9-16.2   l7.1-2.1l8.3,28L341.4,174.2z M313.4,182.5l-5.3-6.7c-1-1.2-1.7-1.8-2.7-1.5l-1.2,0.3l2.9,9.8l-7.9,2.3l-8.3-28l10.9-3.2   c6.2-1.8,11.5-1.2,13.4,5.2c1.2,4.1-1.2,7.2-3.1,8.8l0,0c0,0,1.5,0,3.4,2.2l6.9,8.1L313.4,182.5z M276.7,193.4l-8.3-28l18.2-5.4   l1.8,6.2l-10.3,3.1l1.2,4.1l9.4-2.8l1.8,6.2l-9.4,2.8l1.5,5l10.3-3l1.8,6.2L276.7,193.4z M258.8,198.7l-9.7,2.9l-8.3-28l10.5-3.1   c10.6-3.2,14.2,0.7,17,10.1C271.2,190.3,269.3,195.6,258.8,198.7 M236.7,205.3l-5.3-6.7c-1-1.2-1.7-1.8-2.7-1.5l-1.2,0.3l2.9,9.8   l-7.9,2.3l-8.3-28l10.9-3.2c6.2-1.8,11.5-1.2,13.4,5.2c1.2,4.1-1.2,7.2-3.1,8.8l0,0c0,0,1.5,0,3.4,2.2l6.9,8.1L236.7,205.3z    M175.9,199.7l1.7,5.6l8.8-2.6l1.9,6.3l-8.8,2.6l2.9,9.7l-7.9,2.3l-8.3-28l17.4-5.2l1.9,6.2L175.9,199.7z M406.3,106   c-1.4-4.6-4.3-6.4-9.7-6.6l-1.4,0c-2.3,0-3.4-0.5-3.8-1.7s0.1-2.4,2.2-3c3-0.9,6-0.6,7.4-0.3l-1.6-6.6c-2.2-0.2-5-0.1-8.1,0.8   c-6.9,2-9.3,6.9-7.9,11.5c1.4,4.8,4,6.9,9.9,7l1.4,0c1.9,0,3.3,0.5,3.7,1.7c0.4,1.3,0,2.8-2.9,3.7c-2.3,0.7-5.2,0.7-8.1,0l1.6,6.8   c2.5,0.3,5.3,0.4,8.8-0.7C405.7,116.4,407.9,111.3,406.3,106 M385.2,121.6l-8.3-28l-7.9,2.3l3,10.1l-8,2.4l-3-10.1l-7.9,2.3l8.3,28   l7.9-2.3l-3.3-11.1l8-2.4l3.3,11.1L385.2,121.6z M358,128.7l-2.2-6.1c-1.5,1.5-3.3,2.8-5.4,3.4c-2.9,0.9-5.9,0.3-7.5-5.2l-1-3.3   c-1.2-4.1-0.4-7.4,3.4-8.5c1.7-0.5,4-0.6,6-0.4l-1.5-6.3c-2.2-0.2-4.7,0-7,0.6c-9.7,2.9-11.4,8.8-8.5,18.6   c2.7,9,6.6,14.1,16.1,11.2C353.8,131.8,356.2,130.5,358,128.7 M331.7,126.4l-5.3-17.8l-7.9,2.3l5.3,17.8c0.9,2.9,0.1,4.9-2.2,5.6   c-2.4,0.7-4.1-0.6-4.9-3.5l-5.3-17.8l-7.9,2.3l5.3,17.8c2.5,8.6,7.6,9.6,14.3,7.7C330.8,138.6,334,134.3,331.7,126.4 M300.5,116.3   l-7.8,2.3l2.7,21.6l0,0l-9.1-19.7l-10.4,3.1l2.8,21.6l0,0l-9.6-19.6l-7.9,2.3l14.8,26l9.8-2.9l-2.7-21.6l0,0l9.6,19.6l9.8-2.9   L300.5,116.3z M266.4,156.8l-8.3-28l-7.9,2.3l3,10.1l-8,2.4l-3-10.1l-7.9,2.3l8.3,28l7.9-2.3l-3.3-11.1l8-2.4l3.3,11.1L266.4,156.8   z M239.2,163.8l-2.2-6.1c-1.5,1.5-3.3,2.8-5.4,3.4c-2.9,0.9-5.9,0.3-7.5-5.2l-1-3.3c-1.2-4.1-0.4-7.4,3.4-8.5c1.7-0.5,4-0.6,6-0.4   l-1.5-6.3c-2.2-0.2-4.7,0-7,0.6c-9.7,2.9-11.4,8.8-8.5,18.6c2.7,9,6.6,14.1,16.1,11.2C235,167,237.4,165.7,239.2,163.8    M217.8,171.2l-16.3-25.6l-10.4,3.1l-0.1,30.4l8-2.4l-0.3-5.9l7.7-2.3l3,5.1L217.8,171.2z M187.6,180.2l-8.3-28l-7.1,2.1l4.9,16.2   l0,0l-13.3-13.7l-8.4,2.5l8.3,28l7.1-2.1l-4.9-16.2l0,0l13.3,13.7L187.6,180.2z"/>
	<path d="M209.2,71.3l6.8-2l6.3,21.4l7.9-2.3L223.8,67l6.8-2l-1.9-6.5l-21.4,6.3L209.2,71.3z M196.4,68l8.3,28l8-2.4l-8.3-28   L196.4,68z M188.1,93.9l-1.5-5l9.4-2.8l-1.8-6.2l-9.4,2.8l-1.2-4.2l10.3-3.1l-1.9-6.2l-18.2,5.4l8.3,28l18.2-5.4l-1.9-6.2   L188.1,93.9z M163,77.8l2.7,21.6l0,0l-9.1-19.7l-10.4,3.1l2.8,21.6l0,0l-9.6-19.6l-7.9,2.3l14.8,26l9.8-2.9l-2.7-21.6l0,0l9.6,19.6   l9.8-2.9l-1.9-29.9L163,77.8z M115.7,181.8c0,24.6-20,44.6-44.6,44.6h-4.3l0-42.9c0-7.7-6.2-13.9-13.9-13.9l-22.9,0   c5.8-41.2,36-74.2,75.5-84.7l-7.9-26.7c-55,15.1-95.7,64.7-96.3,124.4c0,7.8,6.4,14,14.1,14h24.5l0,54.4h27v0h4.3   c38.2,0,69.1-30.9,69.1-69.1C140.2,165.4,115.7,165.4,115.7,181.8 M92.5,157.5c9.9,0,17.9-8,17.9-17.9c0-9.9-8-17.9-17.9-17.9   c-9.9,0-17.9,8-17.9,17.9C74.6,149.5,82.6,157.5,92.5,157.5 M143.6,58.3L143.6,58.3c0-0.1,4.1-2.9,2.7-7.4c-1.7-5.9-6.8-5.7-12.4-4   l-11,3.3l8.3,28l10.6-3.1c8.8-2.6,10.3-6.7,8.8-11.8C149,57.6,143.6,58.3,143.6,58.3 M177.3,53.3L172,35.6l-7.9,2.3l5.3,17.8   c0.9,2.9,0.1,4.9-2.2,5.6c-2.4,0.7-4.1-0.6-4.9-3.5L157,40l-7.9,2.3l5.3,17.8c2.5,8.6,7.6,9.6,14.3,7.7   C176.4,65.5,179.6,61.2,177.3,53.3 M209.6,54.9l-8.3-28l-7.1,2.1l4.9,16.2l0,0l-13.3-13.7l-8.4,2.5l8.3,28l7.1-2.1l-4.9-16.2l0,0   l13.3,13.7L209.6,54.9z M234.2,32.3c-2.8-9.4-6.3-13.3-17-10.1l-10.5,3.1l8.3,28l9.7-2.9C235.2,47.3,237.1,42,234.2,32.3    M247.1,31.4l9.4-2.8l-1.8-6.2l-9.4,2.8l-1.2-4.2l10.3-3.1l-1.9-6.2l-18.2,5.4l8.3,28l18.2-5.4l-1.8-6.2l-10.3,3L247.1,31.4z    M280.9,24.4c-1.4-4.6-4.3-6.4-9.7-6.6l-1.4,0c-2.3,0-3.4-0.5-3.8-1.7c-0.4-1.2,0.1-2.4,2.2-3c3-0.9,6-0.6,7.4-0.3L274,6.1   c-2.2-0.2-5-0.1-8.1,0.8c-6.9,2-9.3,6.9-7.9,11.5c1.4,4.8,4,6.9,9.9,7l1.4,0c1.9,0,3.3,0.5,3.7,1.7c0.4,1.3,0,2.8-2.9,3.7   c-2.3,0.7-5.2,0.7-8.1,0l1.6,6.8c2.5,0.3,5.3,0.4,8.8-0.7C280.2,34.7,282.5,29.6,280.9,24.4"/>
</g>
<script xmlns=""/></svg>